<mxfile host="app.diagrams.net" modified="2024-04-22T22:59:43.293Z" agent="Mozilla/5.0 (Windows NT 10.0; Win64; x64) AppleWebKit/537.36 (KHTML, like Gecko) Chrome/121.0.0.0 Safari/537.36 OPR/107.0.0.0" version="23.1.6" etag="URTl7x6xaIOFNfpub4gI" type="github">
  <diagram name="PÃ¡gina-1" id="-Ngasa_y5YO8UnjH6UvJ">
    <mxGraphModel>
      <root>
        <mxCell id="0" />
        <mxCell id="1" parent="0" />
      </root>
    </mxGraphModel>
  </diagram>
</mxfile>
